<svg xmlns="http://www.w3.org/2000/svg" width="960" height="380" viewBox="0 0 960 380" role="img" aria-label="Control Plane Startup">
<defs>
<marker id="arrow-blue" markerWidth="10" markerHeight="7" refX="9" refY="3.5" orient="auto"><path d="M0,0 L10,3.5 L0,7 Z" fill="#2563eb"/></marker>
<marker id="arrow-orange" markerWidth="10" markerHeight="7" refX="9" refY="3.5" orient="auto"><path d="M0,0 L10,3.5 L0,7 Z" fill="#ea580c"/></marker>
<marker id="arrow-gray" markerWidth="10" markerHeight="7" refX="9" refY="3.5" orient="auto"><path d="M0,0 L10,3.5 L0,7 Z" fill="#6b7280"/></marker>
<marker id="arrow-green" markerWidth="10" markerHeight="7" refX="9" refY="3.5" orient="auto"><path d="M0,0 L10,3.5 L0,7 Z" fill="#059669"/></marker>
</defs>

  <style>
    .title{font:700 18px Inter,ui-sans-serif,system-ui,-apple-system,BlinkMacSystemFont,"Segoe UI",sans-serif;fill:#111827;letter-spacing:0}
    .label{font:600 13px Inter,ui-sans-serif,system-ui,-apple-system,BlinkMacSystemFont,"Segoe UI",sans-serif;fill:#111827}
    .sub{font:500 10.5px Inter,ui-sans-serif,system-ui,-apple-system,BlinkMacSystemFont,"Segoe UI",sans-serif;fill:#6b7280}
    .tiny{font:500 10px Inter,ui-sans-serif,system-ui,-apple-system,BlinkMacSystemFont,"Segoe UI",sans-serif;fill:#6b7280}
    .note{font:600 10px Inter,ui-sans-serif,system-ui,-apple-system,BlinkMacSystemFont,"Segoe UI",sans-serif;fill:#475569}
    .box{stroke:#8fb5ff;stroke-width:1.4;fill:#eef5ff;rx:10;ry:10}
    .box-green{stroke:#34d399;stroke-width:1.4;fill:#ecfdf5;rx:10;ry:10}
    .box-orange{stroke:#fb923c;stroke-width:1.4;fill:#fff7ed;rx:10;ry:10}
    .box-purple{stroke:#a78bfa;stroke-width:1.4;fill:#f5f3ff;rx:10;ry:10}
    .box-gray{stroke:#cbd5e1;stroke-width:1.2;fill:#f8fafc;rx:10;ry:10}
    .group{stroke:#d7e3f8;stroke-width:1.2;stroke-dasharray:6 5;fill:#fbfdff;rx:14;ry:14}
    .lane{fill:#f8fbff;stroke:#dbeafe;stroke-width:1}
    .arrow{stroke:#2563eb;stroke-width:2;fill:none;marker-end:url(#arrow-blue)}
    .ctrl{stroke:#ea580c;stroke-width:1.7;fill:none;marker-end:url(#arrow-orange)}
    .async{stroke:#6b7280;stroke-width:1.6;stroke-dasharray:5 4;fill:none;marker-end:url(#arrow-gray)}
    .write{stroke:#059669;stroke-width:1.7;stroke-dasharray:5 4;fill:none;marker-end:url(#arrow-green)}
    .read{stroke:#059669;stroke-width:1.7;fill:none;marker-end:url(#arrow-green)}
  </style>

<rect width="960" height="380" fill="#ffffff"/>
<rect x="50" y="120" width="116" height="58" class="box"/>
<rect x="182" y="120" width="116" height="58" class="box"/>
<rect x="314" y="120" width="116" height="58" class="box"/>
<rect x="446" y="120" width="116" height="58" class="box-purple"/>
<rect x="578" y="120" width="116" height="58" class="box-purple"/>
<rect x="710" y="120" width="116" height="58" class="box-purple"/>
<rect x="842" y="120" width="116" height="58" class="box-green"/>
<rect x="160" y="238" width="640" height="62" class="box-gray"/>
<path d="M166,149 L182,149" class="arrow"/>
<path d="M298,149 L314,149" class="arrow"/>
<path d="M430,149 L446,149" class="arrow"/>
<path d="M562,149 L578,149" class="arrow"/>
<path d="M694,149 L710,149" class="arrow"/>
<path d="M826,149 L842,149" class="arrow"/>
<path d="M478,178 L478,238" class="ctrl"/>
<text x="32" y="36" class="title">Control Plane Startup</text>
<text x="108.0" y="148" text-anchor="middle" class="label">cmd/start.go</text>
<text x="108.0" y="168" text-anchor="middle" class="sub">entry</text>
<text x="240.0" y="148" text-anchor="middle" class="label">bootstrap.Start</text>
<text x="240.0" y="168" text-anchor="middle" class="sub">orchestrate</text>
<text x="372.0" y="148" text-anchor="middle" class="label">storeapi.Get</text>
<text x="372.0" y="168" text-anchor="middle" class="sub">store</text>
<text x="504.0" y="148" text-anchor="middle" class="label">cache.Initialize</text>
<text x="504.0" y="168" text-anchor="middle" class="sub">cache manager</text>
<text x="636.0" y="148" text-anchor="middle" class="label">auth / namespace</text>
<text x="636.0" y="168" text-anchor="middle" class="sub">security</text>
<text x="768.0" y="148" text-anchor="middle" class="label">domain servers</text>
<text x="768.0" y="168" text-anchor="middle" class="sub">domain servers</text>
<text x="900.0" y="148" text-anchor="middle" class="label">cache.Run</text>
<text x="900.0" y="168" text-anchor="middle" class="sub">warm-up + refresh</text>
<text x="480.0" y="266" text-anchor="middle" class="label">API servers start after shared services initialize</text>
<text x="480.0" y="286" text-anchor="middle" class="sub">api-http / grpc / xds-v3 / pprof / monitor</text>
<text x="478.0" y="201.0" text-anchor="middle" class="note">serves</text>
</svg>
