<svg xmlns="http://www.w3.org/2000/svg" width="960" height="360" viewBox="0 0 960 360" role="img" aria-label="Discover Response Cache">
<defs>
<marker id="arrow-blue" markerWidth="10" markerHeight="7" refX="9" refY="3.5" orient="auto"><path d="M0,0 L10,3.5 L0,7 Z" fill="#2563eb"/></marker>
<marker id="arrow-orange" markerWidth="10" markerHeight="7" refX="9" refY="3.5" orient="auto"><path d="M0,0 L10,3.5 L0,7 Z" fill="#ea580c"/></marker>
<marker id="arrow-gray" markerWidth="10" markerHeight="7" refX="9" refY="3.5" orient="auto"><path d="M0,0 L10,3.5 L0,7 Z" fill="#6b7280"/></marker>
<marker id="arrow-green" markerWidth="10" markerHeight="7" refX="9" refY="3.5" orient="auto"><path d="M0,0 L10,3.5 L0,7 Z" fill="#059669"/></marker>
</defs>

  <style>
    .title{font:700 18px Inter,ui-sans-serif,system-ui,-apple-system,BlinkMacSystemFont,"Segoe UI",sans-serif;fill:#111827;letter-spacing:0}
    .label{font:600 13px Inter,ui-sans-serif,system-ui,-apple-system,BlinkMacSystemFont,"Segoe UI",sans-serif;fill:#111827}
    .sub{font:500 10.5px Inter,ui-sans-serif,system-ui,-apple-system,BlinkMacSystemFont,"Segoe UI",sans-serif;fill:#6b7280}
    .tiny{font:500 10px Inter,ui-sans-serif,system-ui,-apple-system,BlinkMacSystemFont,"Segoe UI",sans-serif;fill:#6b7280}
    .note{font:600 10px Inter,ui-sans-serif,system-ui,-apple-system,BlinkMacSystemFont,"Segoe UI",sans-serif;fill:#475569}
    .box{stroke:#8fb5ff;stroke-width:1.4;fill:#eef5ff;rx:10;ry:10}
    .box-green{stroke:#34d399;stroke-width:1.4;fill:#ecfdf5;rx:10;ry:10}
    .box-orange{stroke:#fb923c;stroke-width:1.4;fill:#fff7ed;rx:10;ry:10}
    .box-purple{stroke:#a78bfa;stroke-width:1.4;fill:#f5f3ff;rx:10;ry:10}
    .box-gray{stroke:#cbd5e1;stroke-width:1.2;fill:#f8fafc;rx:10;ry:10}
    .group{stroke:#d7e3f8;stroke-width:1.2;stroke-dasharray:6 5;fill:#fbfdff;rx:14;ry:14}
    .lane{fill:#f8fbff;stroke:#dbeafe;stroke-width:1}
    .arrow{stroke:#2563eb;stroke-width:2;fill:none;marker-end:url(#arrow-blue)}
    .ctrl{stroke:#ea580c;stroke-width:1.7;fill:none;marker-end:url(#arrow-orange)}
    .async{stroke:#6b7280;stroke-width:1.6;stroke-dasharray:5 4;fill:none;marker-end:url(#arrow-gray)}
    .write{stroke:#059669;stroke-width:1.7;stroke-dasharray:5 4;fill:none;marker-end:url(#arrow-green)}
    .read{stroke:#059669;stroke-width:1.7;fill:none;marker-end:url(#arrow-green)}
  </style>

<rect width="960" height="360" fill="#ffffff"/>
<rect x="70" y="80" width="150" height="54" class="box"/>
<rect x="300" y="80" width="150" height="54" class="box-green"/>
<polygon points="540,72.0 605.0,107 540,142.0 475.0,107" fill="#fff7ed" stroke="#fb923c" stroke-width="1.4"/>
<rect x="700" y="55" width="150" height="54" class="box-gray"/>
<rect x="700" y="160" width="150" height="54" class="box-purple"/>
<path d="M220,107 L300,107" class="arrow"/>
<path d="M450,107 L475,107" class="arrow"/>
<path d="M605,107 L652.5,107 L652.5,82 L700,82" class="read"/>
<path d="M540,142 L620.0,142 L620.0,187 L700,187" class="ctrl"/>
<text x="32" y="36" class="title">Discover Response Cache</text>
<text x="145.0" y="108" text-anchor="middle" class="label">Discover request</text>
<text x="145.0" y="128" text-anchor="middle" class="sub">service + revision</text>
<text x="375.0" y="108" text-anchor="middle" class="label">Service cache</text>
<text x="375.0" y="128" text-anchor="middle" class="sub">source service</text>
<text x="540" y="105" text-anchor="middle" class="label">same rev?</text>
<text x="775.0" y="83" text-anchor="middle" class="label">Return empty</text>
<text x="775.0" y="103" text-anchor="middle" class="sub">revision hit</text>
<text x="775.0" y="188" text-anchor="middle" class="label">Build response</text>
<text x="775.0" y="208" text-anchor="middle" class="sub">clone + cache</text>
<text x="652.5" y="87.5" text-anchor="middle" class="note">yes</text>
<text x="620.0" y="157.5" text-anchor="middle" class="note">no</text>
</svg>
