<svg xmlns="http://www.w3.org/2000/svg" width="960" height="340" viewBox="0 0 960 340" role="img" aria-label="Governance Cache Fan-out">
<defs>
<marker id="arrow-blue" markerWidth="10" markerHeight="7" refX="9" refY="3.5" orient="auto"><path d="M0,0 L10,3.5 L0,7 Z" fill="#2563eb"/></marker>
<marker id="arrow-orange" markerWidth="10" markerHeight="7" refX="9" refY="3.5" orient="auto"><path d="M0,0 L10,3.5 L0,7 Z" fill="#ea580c"/></marker>
<marker id="arrow-gray" markerWidth="10" markerHeight="7" refX="9" refY="3.5" orient="auto"><path d="M0,0 L10,3.5 L0,7 Z" fill="#6b7280"/></marker>
<marker id="arrow-green" markerWidth="10" markerHeight="7" refX="9" refY="3.5" orient="auto"><path d="M0,0 L10,3.5 L0,7 Z" fill="#059669"/></marker>
</defs>

  <style>
    .title{font:700 18px Inter,ui-sans-serif,system-ui,-apple-system,BlinkMacSystemFont,"Segoe UI",sans-serif;fill:#111827;letter-spacing:0}
    .label{font:600 13px Inter,ui-sans-serif,system-ui,-apple-system,BlinkMacSystemFont,"Segoe UI",sans-serif;fill:#111827}
    .sub{font:500 10.5px Inter,ui-sans-serif,system-ui,-apple-system,BlinkMacSystemFont,"Segoe UI",sans-serif;fill:#6b7280}
    .tiny{font:500 10px Inter,ui-sans-serif,system-ui,-apple-system,BlinkMacSystemFont,"Segoe UI",sans-serif;fill:#6b7280}
    .note{font:600 10px Inter,ui-sans-serif,system-ui,-apple-system,BlinkMacSystemFont,"Segoe UI",sans-serif;fill:#475569}
    .box{stroke:#8fb5ff;stroke-width:1.4;fill:#eef5ff;rx:10;ry:10}
    .box-green{stroke:#34d399;stroke-width:1.4;fill:#ecfdf5;rx:10;ry:10}
    .box-orange{stroke:#fb923c;stroke-width:1.4;fill:#fff7ed;rx:10;ry:10}
    .box-purple{stroke:#a78bfa;stroke-width:1.4;fill:#f5f3ff;rx:10;ry:10}
    .box-gray{stroke:#cbd5e1;stroke-width:1.2;fill:#f8fafc;rx:10;ry:10}
    .group{stroke:#d7e3f8;stroke-width:1.2;stroke-dasharray:6 5;fill:#fbfdff;rx:14;ry:14}
    .lane{fill:#f8fbff;stroke:#dbeafe;stroke-width:1}
    .arrow{stroke:#2563eb;stroke-width:2;fill:none;marker-end:url(#arrow-blue)}
    .ctrl{stroke:#ea580c;stroke-width:1.7;fill:none;marker-end:url(#arrow-orange)}
    .async{stroke:#6b7280;stroke-width:1.6;stroke-dasharray:5 4;fill:none;marker-end:url(#arrow-gray)}
    .write{stroke:#059669;stroke-width:1.7;stroke-dasharray:5 4;fill:none;marker-end:url(#arrow-green)}
    .read{stroke:#059669;stroke-width:1.7;fill:none;marker-end:url(#arrow-green)}
  </style>

<rect width="960" height="340" fill="#ffffff"/>
<path d="M60,124 C60,110 210,110 210,124 L210,168 C210,182 60,182 60,168 Z" class="box-green"/>
<path d="M60,124 C60,138 210,138 210,124" fill="none" stroke="#34d399" stroke-width="1.2"/>
<rect x="300" y="118" width="170" height="58" class="box-purple"/>
<rect x="620" y="50" width="170" height="46" class="box"/>
<rect x="620" y="116" width="170" height="46" class="box-orange"/>
<rect x="620" y="182" width="170" height="46" class="box-orange"/>
<rect x="620" y="248" width="170" height="46" class="box-green"/>
<path d="M210,146 L300,146" class="read"/>
<path d="M470,146 L545.0,146 L545.0,73 L620,73" class="write"/>
<path d="M470,146 L545.0,146 L545.0,139 L620,139" class="write"/>
<path d="M470,146 L545.0,146 L545.0,205 L620,205" class="write"/>
<path d="M470,146 L545.0,146 L545.0,271 L620,271" class="write"/>
<text x="32" y="36" class="title">Governance Cache Fan-out</text>
<text x="135.0" y="146" text-anchor="middle" class="label">Store updates</text>
<text x="135.0" y="165" text-anchor="middle" class="sub">rules + releases</text>
<text x="385.0" y="146" text-anchor="middle" class="label">Rule updater</text>
<text x="385.0" y="166" text-anchor="middle" class="sub">classify by type</text>
<text x="705.0" y="78" text-anchor="middle" class="label">RouteRule</text>
<text x="705.0" y="144" text-anchor="middle" class="label">RateLimit</text>
<text x="705.0" y="210" text-anchor="middle" class="label">Circuit</text>
<text x="705.0" y="276" text-anchor="middle" class="label">Lane/Auth</text>
</svg>
