<svg xmlns="http://www.w3.org/2000/svg" width="960" height="320" viewBox="0 0 960 320" role="img" aria-label="Governance Publish Request Path">
<defs>
<marker id="arrow-blue" markerWidth="10" markerHeight="7" refX="9" refY="3.5" orient="auto"><path d="M0,0 L10,3.5 L0,7 Z" fill="#2563eb"/></marker>
<marker id="arrow-orange" markerWidth="10" markerHeight="7" refX="9" refY="3.5" orient="auto"><path d="M0,0 L10,3.5 L0,7 Z" fill="#ea580c"/></marker>
</defs>
<style>.title{font:700 18px Inter,ui-sans-serif,system-ui,sans-serif;fill:#111827}.label{font:600 13px Inter,ui-sans-serif,system-ui,sans-serif;fill:#111827}.sub{font:500 10.5px Inter,ui-sans-serif,system-ui,sans-serif;fill:#6b7280}.box{stroke:#8fb5ff;stroke-width:1.4;fill:#eef5ff;rx:10;ry:10}.box-orange{stroke:#fb923c;stroke-width:1.4;fill:#fff7ed;rx:10;ry:10}.box-green{stroke:#34d399;stroke-width:1.4;fill:#ecfdf5;rx:10;ry:10}.box-purple{stroke:#a78bfa;stroke-width:1.4;fill:#f5f3ff;rx:10;ry:10}.arrow{stroke:#2563eb;stroke-width:2;fill:none;marker-end:url(#arrow-blue)}.ctrl{stroke:#ea580c;stroke-width:1.7;fill:none;marker-end:url(#arrow-orange)}</style>
<rect width="960" height="320" fill="#ffffff"/>
<text x="32" y="36" class="title">Governance Publish Request Path</text>
<rect x="60" y="126" width="130" height="58" class="box"/>
<rect x="230" y="126" width="130" height="58" class="box"/>
<rect x="400" y="126" width="130" height="58" class="box-orange"/>
<rect x="570" y="126" width="130" height="58" class="box"/>
<rect x="740" y="126" width="130" height="58" class="box-green"/>
<path d="M190,155 L230,155" class="arrow"/>
<path d="M360,155 L400,155" class="arrow"/>
<path d="M530,155 L570,155" class="arrow"/>
<path d="M700,155 L740,155" class="arrow"/>
<text x="125" y="154" text-anchor="middle" class="label">Console</text>
<text x="125" y="174" text-anchor="middle" class="sub">publish</text>
<text x="295" y="154" text-anchor="middle" class="label">api-http</text>
<text x="295" y="174" text-anchor="middle" class="sub">handler</text>
<text x="465" y="154" text-anchor="middle" class="label">auth proxy</text>
<text x="465" y="174" text-anchor="middle" class="sub">permission</text>
<text x="635" y="154" text-anchor="middle" class="label">store tx</text>
<text x="635" y="174" text-anchor="middle" class="sub">release rows</text>
<text x="805" y="154" text-anchor="middle" class="label">cache refresh</text>
<text x="805" y="174" text-anchor="middle" class="sub">active view</text>
</svg>
