<svg xmlns="http://www.w3.org/2000/svg" width="960" height="340" viewBox="0 0 960 340" role="img" aria-label="Governance Rule and Release Views">
<defs>
<marker id="arrow-blue" markerWidth="10" markerHeight="7" refX="9" refY="3.5" orient="auto"><path d="M0,0 L10,3.5 L0,7 Z" fill="#2563eb"/></marker>
<marker id="arrow-orange" markerWidth="10" markerHeight="7" refX="9" refY="3.5" orient="auto"><path d="M0,0 L10,3.5 L0,7 Z" fill="#ea580c"/></marker>
<marker id="arrow-gray" markerWidth="10" markerHeight="7" refX="9" refY="3.5" orient="auto"><path d="M0,0 L10,3.5 L0,7 Z" fill="#6b7280"/></marker>
<marker id="arrow-green" markerWidth="10" markerHeight="7" refX="9" refY="3.5" orient="auto"><path d="M0,0 L10,3.5 L0,7 Z" fill="#059669"/></marker>
</defs>

  <style>
    .title{font:700 18px Inter,ui-sans-serif,system-ui,-apple-system,BlinkMacSystemFont,"Segoe UI",sans-serif;fill:#111827;letter-spacing:0}
    .label{font:600 13px Inter,ui-sans-serif,system-ui,-apple-system,BlinkMacSystemFont,"Segoe UI",sans-serif;fill:#111827}
    .sub{font:500 10.5px Inter,ui-sans-serif,system-ui,-apple-system,BlinkMacSystemFont,"Segoe UI",sans-serif;fill:#6b7280}
    .tiny{font:500 10px Inter,ui-sans-serif,system-ui,-apple-system,BlinkMacSystemFont,"Segoe UI",sans-serif;fill:#6b7280}
    .note{font:600 10px Inter,ui-sans-serif,system-ui,-apple-system,BlinkMacSystemFont,"Segoe UI",sans-serif;fill:#475569}
    .box{stroke:#8fb5ff;stroke-width:1.4;fill:#eef5ff;rx:10;ry:10}
    .box-green{stroke:#34d399;stroke-width:1.4;fill:#ecfdf5;rx:10;ry:10}
    .box-orange{stroke:#fb923c;stroke-width:1.4;fill:#fff7ed;rx:10;ry:10}
    .box-purple{stroke:#a78bfa;stroke-width:1.4;fill:#f5f3ff;rx:10;ry:10}
    .box-gray{stroke:#cbd5e1;stroke-width:1.2;fill:#f8fafc;rx:10;ry:10}
    .group{stroke:#d7e3f8;stroke-width:1.2;stroke-dasharray:6 5;fill:#fbfdff;rx:14;ry:14}
    .lane{fill:#f8fbff;stroke:#dbeafe;stroke-width:1}
    .arrow{stroke:#2563eb;stroke-width:2;fill:none;marker-end:url(#arrow-blue)}
    .ctrl{stroke:#ea580c;stroke-width:1.7;fill:none;marker-end:url(#arrow-orange)}
    .async{stroke:#6b7280;stroke-width:1.6;stroke-dasharray:5 4;fill:none;marker-end:url(#arrow-gray)}
    .write{stroke:#059669;stroke-width:1.7;stroke-dasharray:5 4;fill:none;marker-end:url(#arrow-green)}
    .read{stroke:#059669;stroke-width:1.7;fill:none;marker-end:url(#arrow-green)}
  </style>

<rect width="960" height="340" fill="#ffffff"/>
<path d="M80,94 C80,80 230,80 230,94 L230,134 C230,148 80,148 80,134 Z" class="box-green"/>
<path d="M80,94 C80,108 230,108 230,94" fill="none" stroke="#34d399" stroke-width="1.2"/>
<path d="M80,208 C80,194 230,194 230,208 L230,248 C230,262 80,262 80,248 Z" class="box-green"/>
<path d="M80,208 C80,222 230,222 230,208" fill="none" stroke="#34d399" stroke-width="1.2"/>
<rect x="340" y="82" width="180" height="64" class="box"/>
<rect x="340" y="196" width="180" height="64" class="box-green"/>
<rect x="680" y="82" width="150" height="64" class="box-gray"/>
<rect x="680" y="196" width="150" height="64" class="box-gray"/>
<path d="M230,114 L340,114" class="read"/>
<path d="M230,228 L340,228" class="read"/>
<path d="M520,114 L680,114" class="arrow"/>
<path d="M520,228 L680,228" class="arrow"/>
<text x="32" y="36" class="title">Governance Rule and Release Views</text>
<text x="155.0" y="116" text-anchor="middle" class="label">Rule table</text>
<text x="155.0" y="135" text-anchor="middle" class="sub">draft / metadata</text>
<text x="155.0" y="230" text-anchor="middle" class="label">Release table</text>
<text x="155.0" y="249" text-anchor="middle" class="sub">active versions</text>
<text x="430.0" y="110" text-anchor="middle" class="label">Console cache</text>
<text x="430.0" y="130" text-anchor="middle" class="sub">ruleID -&gt; rule</text>
<text x="430.0" y="224" text-anchor="middle" class="label">Client cache</text>
<text x="430.0" y="244" text-anchor="middle" class="sub">activeKey -&gt; release</text>
<text x="755.0" y="110" text-anchor="middle" class="label">Console</text>
<text x="755.0" y="130" text-anchor="middle" class="sub">list / detail</text>
<text x="755.0" y="224" text-anchor="middle" class="label">Client</text>
<text x="755.0" y="244" text-anchor="middle" class="sub">discover view</text>
</svg>
