<svg xmlns="http://www.w3.org/2000/svg" width="960" height="380" viewBox="0 0 960 380" role="img" aria-label="CacheManager Lifecycle">
<defs>
<marker id="arrow-blue" markerWidth="10" markerHeight="7" refX="9" refY="3.5" orient="auto"><path d="M0,0 L10,3.5 L0,7 Z" fill="#2563eb"/></marker>
<marker id="arrow-orange" markerWidth="10" markerHeight="7" refX="9" refY="3.5" orient="auto"><path d="M0,0 L10,3.5 L0,7 Z" fill="#ea580c"/></marker>
<marker id="arrow-gray" markerWidth="10" markerHeight="7" refX="9" refY="3.5" orient="auto"><path d="M0,0 L10,3.5 L0,7 Z" fill="#6b7280"/></marker>
<marker id="arrow-green" markerWidth="10" markerHeight="7" refX="9" refY="3.5" orient="auto"><path d="M0,0 L10,3.5 L0,7 Z" fill="#059669"/></marker>
</defs>

  <style>
    .title{font:700 18px Inter,ui-sans-serif,system-ui,-apple-system,BlinkMacSystemFont,"Segoe UI",sans-serif;fill:#111827;letter-spacing:0}
    .label{font:600 13px Inter,ui-sans-serif,system-ui,-apple-system,BlinkMacSystemFont,"Segoe UI",sans-serif;fill:#111827}
    .sub{font:500 10.5px Inter,ui-sans-serif,system-ui,-apple-system,BlinkMacSystemFont,"Segoe UI",sans-serif;fill:#6b7280}
    .tiny{font:500 10px Inter,ui-sans-serif,system-ui,-apple-system,BlinkMacSystemFont,"Segoe UI",sans-serif;fill:#6b7280}
    .note{font:600 10px Inter,ui-sans-serif,system-ui,-apple-system,BlinkMacSystemFont,"Segoe UI",sans-serif;fill:#475569}
    .box{stroke:#8fb5ff;stroke-width:1.4;fill:#eef5ff;rx:10;ry:10}
    .box-green{stroke:#34d399;stroke-width:1.4;fill:#ecfdf5;rx:10;ry:10}
    .box-orange{stroke:#fb923c;stroke-width:1.4;fill:#fff7ed;rx:10;ry:10}
    .box-purple{stroke:#a78bfa;stroke-width:1.4;fill:#f5f3ff;rx:10;ry:10}
    .box-gray{stroke:#cbd5e1;stroke-width:1.2;fill:#f8fafc;rx:10;ry:10}
    .group{stroke:#d7e3f8;stroke-width:1.2;stroke-dasharray:6 5;fill:#fbfdff;rx:14;ry:14}
    .lane{fill:#f8fbff;stroke:#dbeafe;stroke-width:1}
    .arrow{stroke:#2563eb;stroke-width:2;fill:none;marker-end:url(#arrow-blue)}
    .ctrl{stroke:#ea580c;stroke-width:1.7;fill:none;marker-end:url(#arrow-orange)}
    .async{stroke:#6b7280;stroke-width:1.6;stroke-dasharray:5 4;fill:none;marker-end:url(#arrow-gray)}
    .write{stroke:#059669;stroke-width:1.7;stroke-dasharray:5 4;fill:none;marker-end:url(#arrow-green)}
    .read{stroke:#059669;stroke-width:1.7;fill:none;marker-end:url(#arrow-green)}
  </style>

<rect width="960" height="380" fill="#ffffff"/>
<rect x="80" y="90" width="150" height="58" class="box"/>
<rect x="300" y="90" width="150" height="58" class="box-green"/>
<rect x="520" y="90" width="150" height="58" class="box-green"/>
<rect x="740" y="90" width="150" height="58" class="box-purple"/>
<rect x="70" y="220" width="820" height="92" class="group"/>
<rect x="102" y="262" width="104" height="34" class="box-gray"/>
<rect x="230" y="262" width="104" height="34" class="box-gray"/>
<rect x="358" y="262" width="104" height="34" class="box-gray"/>
<rect x="486" y="262" width="104" height="34" class="box-gray"/>
<rect x="614" y="262" width="104" height="34" class="box-gray"/>
<rect x="742" y="262" width="104" height="34" class="box-gray"/>
<path d="M230,119 L300,119" class="arrow"/>
<path d="M450,119 L520,119" class="arrow"/>
<path d="M670,119 L740,119" class="arrow"/>
<text x="32" y="36" class="title">CacheManager Lifecycle</text>
<text x="155.0" y="118" text-anchor="middle" class="label">OpenResourceCache</text>
<text x="155.0" y="138" text-anchor="middle" class="sub">needLoad set</text>
<text x="375.0" y="118" text-anchor="middle" class="label">Warm-up</text>
<text x="375.0" y="138" text-anchor="middle" class="sub">concurrent Update</text>
<text x="595.0" y="118" text-anchor="middle" class="label">Start refresh</text>
<text x="595.0" y="138" text-anchor="middle" class="sub">1s loop</text>
<text x="815.0" y="118" text-anchor="middle" class="label">Ready caches</text>
<text x="815.0" y="138" text-anchor="middle" class="sub">runtime read</text>
<text x="480" y="246" text-anchor="middle" class="label">Registered caches</text>
<text x="154.0" y="290" text-anchor="middle" class="label">service</text>
<text x="282.0" y="290" text-anchor="middle" class="label">instance</text>
<text x="410.0" y="290" text-anchor="middle" class="label">governance</text>
<text x="538.0" y="290" text-anchor="middle" class="label">config</text>
<text x="666.0" y="290" text-anchor="middle" class="label">user/policy</text>
<text x="794.0" y="290" text-anchor="middle" class="label">mcp/a2a</text>
</svg>
