<svg xmlns="http://www.w3.org/2000/svg" width="960" height="320" viewBox="0 0 960 320" role="img" aria-label="Rule Release Permission Mapping">
<defs>
<marker id="arrow-blue" markerWidth="10" markerHeight="7" refX="9" refY="3.5" orient="auto"><path d="M0,0 L10,3.5 L0,7 Z" fill="#2563eb"/></marker>
<marker id="arrow-orange" markerWidth="10" markerHeight="7" refX="9" refY="3.5" orient="auto"><path d="M0,0 L10,3.5 L0,7 Z" fill="#ea580c"/></marker>
<marker id="arrow-gray" markerWidth="10" markerHeight="7" refX="9" refY="3.5" orient="auto"><path d="M0,0 L10,3.5 L0,7 Z" fill="#6b7280"/></marker>
<marker id="arrow-green" markerWidth="10" markerHeight="7" refX="9" refY="3.5" orient="auto"><path d="M0,0 L10,3.5 L0,7 Z" fill="#059669"/></marker>
</defs>

  <style>
    .title{font:700 18px Inter,ui-sans-serif,system-ui,-apple-system,BlinkMacSystemFont,"Segoe UI",sans-serif;fill:#111827;letter-spacing:0}
    .label{font:600 13px Inter,ui-sans-serif,system-ui,-apple-system,BlinkMacSystemFont,"Segoe UI",sans-serif;fill:#111827}
    .sub{font:500 10.5px Inter,ui-sans-serif,system-ui,-apple-system,BlinkMacSystemFont,"Segoe UI",sans-serif;fill:#6b7280}
    .tiny{font:500 10px Inter,ui-sans-serif,system-ui,-apple-system,BlinkMacSystemFont,"Segoe UI",sans-serif;fill:#6b7280}
    .note{font:600 10px Inter,ui-sans-serif,system-ui,-apple-system,BlinkMacSystemFont,"Segoe UI",sans-serif;fill:#475569}
    .box{stroke:#8fb5ff;stroke-width:1.4;fill:#eef5ff;rx:10;ry:10}
    .box-green{stroke:#34d399;stroke-width:1.4;fill:#ecfdf5;rx:10;ry:10}
    .box-orange{stroke:#fb923c;stroke-width:1.4;fill:#fff7ed;rx:10;ry:10}
    .box-purple{stroke:#a78bfa;stroke-width:1.4;fill:#f5f3ff;rx:10;ry:10}
    .box-gray{stroke:#cbd5e1;stroke-width:1.2;fill:#f8fafc;rx:10;ry:10}
    .group{stroke:#d7e3f8;stroke-width:1.2;stroke-dasharray:6 5;fill:#fbfdff;rx:14;ry:14}
    .lane{fill:#f8fbff;stroke:#dbeafe;stroke-width:1}
    .arrow{stroke:#2563eb;stroke-width:2;fill:none;marker-end:url(#arrow-blue)}
    .ctrl{stroke:#ea580c;stroke-width:1.7;fill:none;marker-end:url(#arrow-orange)}
    .async{stroke:#6b7280;stroke-width:1.6;stroke-dasharray:5 4;fill:none;marker-end:url(#arrow-gray)}
    .write{stroke:#059669;stroke-width:1.7;stroke-dasharray:5 4;fill:none;marker-end:url(#arrow-green)}
    .read{stroke:#059669;stroke-width:1.7;fill:none;marker-end:url(#arrow-green)}
  </style>

<rect width="960" height="320" fill="#ffffff"/>
<rect x="70" y="102" width="150" height="58" class="box"/>
<rect x="300" y="102" width="150" height="58" class="box-orange"/>
<rect x="530" y="74" width="150" height="54" class="box-green"/>
<rect x="530" y="164" width="150" height="54" class="box-purple"/>
<rect x="760" y="120" width="150" height="54" class="box-gray"/>
<path d="M220,131 L300,131" class="arrow"/>
<path d="M450,131 L490.0,131 L490.0,101 L530,101" class="read"/>
<path d="M450,131 L490.0,131 L490.0,191 L530,191" class="ctrl"/>
<path d="M680,101 L720.0,101 L720.0,140 L760,140" class="arrow"/>
<path d="M680,191 L720.0,191 L720.0,154 L760,154" class="arrow"/>
<text x="32" y="36" class="title">Rule Release Permission Mapping</text>
<text x="145.0" y="130" text-anchor="middle" class="label">RuleRelease</text>
<text x="145.0" y="150" text-anchor="middle" class="sub">resource + ids</text>
<text x="375.0" y="130" text-anchor="middle" class="label">Dispatch</text>
<text x="375.0" y="150" text-anchor="middle" class="sub">by resource</text>
<text x="605.0" y="102" text-anchor="middle" class="label">Rule cache</text>
<text x="605.0" y="122" text-anchor="middle" class="sub">metadata</text>
<text x="605.0" y="192" text-anchor="middle" class="label">Permission</text>
<text x="605.0" y="212" text-anchor="middle" class="sub">console auth</text>
<text x="835.0" y="148" text-anchor="middle" class="label">Allow/Deny</text>
<text x="835.0" y="168" text-anchor="middle" class="sub">release op</text>
</svg>
